# xmcd
#
# Track frame offsets:
#	150
#	21834
#	39949
#	61579
#	79707
#	105759
#	122493
#	138233
#	159241
#	187562
#	210292
#	231982
#
# Disc length: 3393 seconds
#
# Revision: 1
# Processed by: cddbd v1.5.2PL0 Copyright (c) Steve Scherf et al.
# Submitted via: audiograbber 1.83.01
#
DISCID=7a0d3f0c
DTITLE=Steamroller - Live!
DYEAR=1900
DGENRE=
TTITLE0=You Make Me Sick
TTITLE1=Further On Up The Road
TTITLE2=Never Looking Back
TTITLE3=Home Town Blues
TTITLE4=Continental Op
TTITLE5=Pulpwod
TTITLE6=Grew Up In The Blues
TTITLE7=Sweet Man
TTITLE8=Morning Dew
TTITLE9=You Don't Love Me
TTITLE10=Baby Please Don't Go
TTITLE11=Light My Fire Again
EXTD=
EXTT0=
EXTT1=
EXTT2=
EXTT3=
EXTT4=
EXTT5=
EXTT6=
EXTT7=
EXTT8=
EXTT9=
EXTT10=
EXTT11=
PLAYORDER=
